<?xml version="1.0" encoding="UTF-8"?>
<svg version="1.1" xmlns="http://www.w3.org/2000/svg" width="54" height="56">
<path d="M0 0 C3.83550551 1.7137365 4.60798709 3.67200564 6.2734375 7.40234375 C6.9375 9.3125 6.9375 9.3125 6.9375 11.3125 C7.63875 11.395 8.34 11.4775 9.0625 11.5625 C12.67239415 12.50421152 15.02535384 13.9960201 17.9375 16.3125 C19.0625 18.25 19.0625 18.25 18.9375 20.3125 C16.77329881 23.67903519 14.76240852 25.9976877 10.9375 27.3125 C9.6175 27.3125 8.2975 27.3125 6.9375 27.3125 C6.834375 28.034375 6.73125 28.75625 6.625 29.5 C5.86967477 32.58996686 4.74612024 34.70808686 2.9375 37.3125 C0.02694799 38.767776 -1.84341798 38.76317148 -5.0625 38.3125 C-7.25422012 35.70613013 -8.8318652 33.64115701 -9.421875 30.2421875 C-9.89377859 28.16281262 -9.89377859 28.16281262 -11.83984375 27.1171875 C-12.55269531 26.81039062 -13.26554688 26.50359375 -14 26.1875 C-16.59459987 25.04794797 -18.02799847 24.34700153 -20.0625 22.3125 C-20 18.875 -20 18.875 -19.0625 15.3125 C-15.96442613 12.73077177 -13.01714558 11.87744937 -9.0625 11.3125 C-8.9696875 9.9821875 -8.9696875 9.9821875 -8.875 8.625 C-7.62969155 3.54797324 -5.36434343 0.54738198 0 0 Z M-3.0625 4.3125 C-4.0525 6.2925 -5.0425 8.2725 -6.0625 10.3125 C-3.0925 10.3125 -0.1225 10.3125 2.9375 10.3125 C2.23410434 7.80284386 2.23410434 7.80284386 0.9375 5.3125 C-1.10355639 4.42556697 -1.10355639 4.42556697 -3.0625 4.3125 Z M-7.0625 14.3125 C-7.10375 15.570625 -7.145 16.82875 -7.1875 18.125 C-7.21070313 18.83269531 -7.23390625 19.54039063 -7.2578125 20.26953125 C-7.19504462 22.62609719 -7.19504462 22.62609719 -5.0625 25.3125 C-2.3197492 25.78364738 0.13308897 25.49055784 2.9375 25.3125 C4.19699049 24.27843327 4.19699049 24.27843327 4.03515625 22.02734375 C4.02355469 21.11082031 4.01195312 20.19429687 4 19.25 C3.979375 17.620625 3.95875 15.99125 3.9375 14.3125 C0.3075 14.3125 -3.3225 14.3125 -7.0625 14.3125 Z M7.9375 15.3125 C7.9375 18.2825 7.9375 21.2525 7.9375 24.3125 C10.2475 22.9925 12.5575 21.6725 14.9375 20.3125 C14.29770151 18.28008273 14.29770151 18.28008273 12.9375 16.3125 C10.38230079 15.50078772 10.38230079 15.50078772 7.9375 15.3125 Z M-16.0625 17.3125 C-15.95636164 19.76474694 -15.95636164 19.76474694 -15.0625 22.3125 C-12.58613988 23.68716625 -12.58613988 23.68716625 -10.0625 24.3125 C-10.0625 21.3425 -10.0625 18.3725 -10.0625 15.3125 C-12.52528801 15.3125 -13.91474119 16.16702863 -16.0625 17.3125 Z M-5.0625 28.3125 C-4.7325 30.2925 -4.4025 32.2725 -4.0625 34.3125 C-2.0825 34.8075 -2.0825 34.8075 -0.0625 35.3125 C2.19635324 32.05852492 2.19635324 32.05852492 2.9375 28.3125 C0.2975 28.3125 -2.3425 28.3125 -5.0625 28.3125 Z " fill="#141414" transform="translate(29.0625,7.6875)"/>
<path d="M0 0 C1.32 0.33 2.64 0.66 4 1 C4 1.66 4 2.32 4 3 C4.99 3 5.98 3 7 3 C7 4.32 7 5.64 7 7 C6.34 7 5.68 7 5 7 C5 9.97 5 12.94 5 16 C4.67 16 4.34 16 4 16 C4 12.7 4 9.4 4 6 C3.34 6 2.68 6 2 6 C2 9.63 2 13.26 2 17 C1.34 16.67 0.68 16.34 0 16 C0.33 12.7 0.66 9.4 1 6 C-2.63 6 -6.26 6 -10 6 C-10 5.67 -10 5.34 -10 5 C-6.7 4.67 -3.4 4.34 0 4 C-2.97 3.67 -5.94 3.34 -9 3 C-9 2.67 -9 2.34 -9 2 C-6.03 2 -3.06 2 0 2 C0 1.34 0 0.68 0 0 Z " fill="#686868" transform="translate(32,16)"/>
<path d="M0 0 C3.21328529 0.85687608 5.51447031 1.55998872 8 3.8125 C9 6 9 6 8.5625 8.5 C6.53515275 11.7437556 4.32787252 13.16627433 1 15 C0.01 15 -0.98 15 -2 15 C-1.8125 13.1875 -1.8125 13.1875 -1 11 C1.5625 9.25 1.5625 9.25 4 8 C3.67 7.01 3.34 6.02 3 5 C2.01 4.67 1.02 4.34 0 4 C0 2.68 0 1.36 0 0 Z " fill="#3A3A3A" transform="translate(39,20)"/>
<path d="M0 0 C1.85233285 2.40803271 3 3.92741925 3 7 C1.68 7 0.36 7 -1 7 C-1.66 6.01 -2.32 5.02 -3 4 C-3.99 4 -4.98 4 -6 4 C-6.99 5.98 -7.98 7.96 -9 10 C-9.99 9.34 -10.98 8.68 -12 8 C-11.15612753 4.83547824 -10.46488666 2.51469594 -8.25 0.0625 C-5.04870759 -1.44922142 -3.32129021 -1.13065198 0 0 Z " fill="#454545" transform="translate(32,9)"/>
<path d="M0 0 C0.721875 0.391875 1.44375 0.78375 2.1875 1.1875 C-0.8125 3.1875 -0.8125 3.1875 -3.8125 4.1875 C-3.8125 5.5075 -3.8125 6.8275 -3.8125 8.1875 C-1.89227297 9.96159808 -1.89227297 9.96159808 0.1875 11.1875 C-0.8025 11.1875 -1.7925 11.1875 -2.8125 11.1875 C-3.1425 11.8475 -3.4725 12.5075 -3.8125 13.1875 C-6.375 11.625 -6.375 11.625 -8.8125 9.1875 C-8.9375 5.625 -8.9375 5.625 -7.8125 2.1875 C-4.91910921 -0.46477489 -3.81760716 -1.10286429 0 0 Z " fill="#333333" transform="translate(17.8125,20.8125)"/>
<path d="M0 0 C0.33 0.99 0.66 1.98 1 3 C4.63 3 8.26 3 12 3 C11.67 3.66 11.34 4.32 11 5 C7.7 5 4.4 5 1 5 C1 7.97 1 10.94 1 14 C-0.32 13.01 -1.64 12.02 -3 11 C-2.79375 10.4225 -2.5875 9.845 -2.375 9.25 C-1.91338739 6.48032433 -2.57055055 5.35438733 -4 3 C-3.01 3 -2.02 3 -1 3 C-0.67 2.01 -0.34 1.02 0 0 Z " fill="#191919" transform="translate(21,16)"/>
<path d="M0 0 C0.66 0.66 1.32 1.32 2 2 C1.8125 5 1.8125 5 1 8 C-2.4352048 10.29013653 -3.985331 10.17842973 -8 10 C-8.66 8.68 -9.32 7.36 -10 6 C-9.01 5.01 -8.02 4.02 -7 3 C-6.67 3.99 -6.34 4.98 -6 6 C-4.04105639 5.88693303 -4.04105639 5.88693303 -2 5 C-0.70339566 2.50965614 -0.70339566 2.50965614 0 0 Z " fill="#373737" transform="translate(32,36)"/>
<path d="M0 0 C0.66 0 1.32 0 2 0 C2 3.3 2 6.6 2 10 C2.66 10.33 3.32 10.66 4 11 C3.01 13.31 2.02 15.62 1 18 C-3.875 13.25 -3.875 13.25 -5 11 C-3.35 11 -1.7 11 0 11 C0 7.37 0 3.74 0 0 Z " fill="#161616" transform="translate(34,22)"/>
<path d="M0 0 C0.66 0.66 1.32 1.32 2 2 C2.99 2.33 3.98 2.66 5 3 C8 4 8 4 10 6 C6.71023192 7.09658936 5.28696233 6.79953138 2 6 C1.67 6.99 1.34 7.98 1 9 C1.020625 8.2575 1.04125 7.515 1.0625 6.75 C1.00671312 4.29537721 0.6930096 2.33890739 0 0 Z " fill="#4F4F4F" transform="translate(22,30)"/>
<path d="M0 0 C0 0.66 0 1.32 0 2 C0.66 2.33 1.32 2.66 2 3 C-2.625 6 -2.625 6 -6 6 C-5.6875 4.125 -5.6875 4.125 -5 2 C-2 0 -2 0 0 0 Z " fill="#494949" transform="translate(43,29)"/>
<path d="M0 0 C2 2 4 4 6 6 C5.01 6 4.02 6 3 6 C2.67 6.66 2.34 7.32 2 8 C1.01 7.34 0.02 6.68 -1 6 C-0.67 4.02 -0.34 2.04 0 0 Z " fill="#585858" transform="translate(12,26)"/>
<path d="M0 0 C0.6875 1.75 0.6875 1.75 1 4 C-0.4375 6.25 -0.4375 6.25 -2 8 C-2.66 6.68 -3.32 5.36 -4 4 C-2.68 2.68 -1.36 1.36 0 0 Z " fill="#383838" transform="translate(24,11)"/>
<path d="M0 0 C-0.33 1.32 -0.66 2.64 -1 4 C-3.475 3.01 -3.475 3.01 -6 2 C-6 1.34 -6 0.68 -6 0 C-2.25 -1.125 -2.25 -1.125 0 0 Z " fill="#292929" transform="translate(21,32)"/>
</svg>
